<?xml version="1.0" encoding="utf-8"?>
<!-- Generator: Adobe Illustrator 17.0.0, SVG Export Plug-In . SVG Version: 6.00 Build 0)  -->
<!DOCTYPE svg PUBLIC "-//W3C//DTD SVG 1.1//EN" "http://www.w3.org/Graphics/SVG/1.1/DTD/svg11.dtd" [
	<!ENTITY ns_extend "http://ns.adobe.com/Extensibility/1.0/">
	<!ENTITY ns_ai "http://ns.adobe.com/AdobeIllustrator/10.0/">
	<!ENTITY ns_graphs "http://ns.adobe.com/Graphs/1.0/">
	<!ENTITY ns_vars "http://ns.adobe.com/Variables/1.0/">
	<!ENTITY ns_imrep "http://ns.adobe.com/ImageReplacement/1.0/">
	<!ENTITY ns_sfw "http://ns.adobe.com/SaveForWeb/1.0/">
	<!ENTITY ns_custom "http://ns.adobe.com/GenericCustomNamespace/1.0/">
	<!ENTITY ns_adobe_xpath "http://ns.adobe.com/XPath/1.0/">
]>
<svg version="1.1" xmlns:x="&ns_extend;" xmlns:i="&ns_ai;" xmlns:graph="&ns_graphs;"
	 xmlns="http://www.w3.org/2000/svg" xmlns:xlink="http://www.w3.org/1999/xlink" x="0px" y="0px" width="112px" height="120.195px"
	 viewBox="0 0 112 120.195" enable-background="new 0 0 112 120.195" xml:space="preserve">
<metadata>
	<sfw  xmlns="&ns_sfw;">
		<slices></slices>
		<sliceSourceBounds  width="16388.955" height="16383.281" bottomLeftOrigin="true" x="-8140.955" y="-8248"></sliceSourceBounds>
		<optimizationSettings>
			<targetSettings  targetSettingsID="0" fileFormat="PNG24Format">
				<PNG24Format  transparency="true" interlaced="false" matteColor="#FFFFFF" filtered="false" noMatteColor="false">
					</PNG24Format>
			</targetSettings>
		</optimizationSettings>
	</sfw>
</metadata>
<g id="Xarxes">
	
		<image display="none" overflow="visible" width="112" height="112" xlink:href="../../../../../../Volumes/My Book/_coses creacions selec/_disseny/_Portafoli/_imgs galeria/icones-Social-Media-2012-01.png"  transform="matrix(1 0 0 1 0 -0.0669)">
	</image>
	<polygon fill-rule="evenodd" clip-rule="evenodd" fill="#0423D4" points="0,0 0,55.889 55.974,55.889 55.974,27.954 84.096,27.893 
		84.096,55.828 112,55.889 112,0 	"/>
	<text transform="matrix(1 0 0 1 10.709 21.8086)" display="none" fill="#FFFFFF" font-family="'Arial-BoldMT'" font-size="20">f</text>
	<g>
		<path fill="#FFFFFF" d="M8.89,12.144h2.524v-1.25c0-0.873,0.093-1.523,0.278-1.953c0.186-0.43,0.547-1.036,1.055-1.288
			c0.816-0.405,2.128-0.405,2.89-0.405c0.781,0,2.547,0.117,3.295,0.352l-0.4,2.152c-0.436-0.104-1.856-0.156-2.26-0.156
			c-0.397,0-0.616-0.001-0.854,0.278c-0.387,0.454-0.259,1.552-0.259,2.08l0,0.191h3.051v3.159h-3.051v6.743h-3.745v-6.743H8.89
			V12.144z"/>
	</g>
	<path fill="#FFFFFF" d="M45.304,18.305c-0.858,0-1.264,0.014-1.657,0.027c-0.415,0.015-0.843,0.028-1.885,0.028
		c-0.8,0-2.155-0.373-2.155-1.771v-2.017h5.697c1.051,0,1.903-0.852,1.903-1.904c0-1.049-0.852-1.903-1.903-1.903h-5.697V8.721
		c0-1.05-0.851-1.903-1.902-1.903s-1.903,0.853-1.903,1.903v7.868c0,3.18,2.562,5.577,5.96,5.577c1.105,0,1.565-0.015,2.012-0.03
		c0.378-0.013,0.735-0.025,1.53-0.025c1.051,0,1.903-0.852,1.903-1.903C47.207,19.158,46.354,18.305,45.304,18.305z"/>
	<text transform="matrix(1 0 0 1 90.8203 20.124)" display="none" fill="#FFFFFF" font-family="'Helvetica-Bold'" font-size="16">in</text>
	<g>
		<path fill="#FFFFFF" d="M93.892,10.834h-2.41V8.64h2.41V10.834z M91.481,11.918h2.41v9.091h-2.41V11.918z"/>
		<path fill="#FFFFFF" d="M103.524,12.439c0.595,0.492,0.893,1.308,0.893,2.448v6.122h-2.436v-5.529c0-0.478-0.063-0.845-0.19-1.101
			c-0.231-0.467-0.674-0.701-1.324-0.701c-0.801,0-1.35,0.342-1.648,1.026c-0.154,0.362-0.231,0.823-0.231,1.385v4.92H96.21v-9.074
			h2.302v1.326c0.305-0.467,0.593-0.803,0.863-1.009c0.488-0.367,1.105-0.551,1.853-0.551
			C102.163,11.701,102.93,11.947,103.524,12.439z"/>
	</g>
	<g>
		<path fill="#FFFFFF" d="M12.114,41.376c0,0,1.681-0.125,1.681-2.096c0-1.972-1.375-2.933-3.117-2.933H4.947v11.014h5.731
			c0,0,3.499,0.11,3.499-3.251C14.177,44.11,14.33,41.376,12.114,41.376L12.114,41.376z M10.265,38.306h0.413
			c0,0,0.779,0,0.779,1.146c0,1.145-0.457,1.312-0.977,1.312H7.472v-2.458H10.265L10.265,38.306z M10.516,45.404H7.472v-2.943h3.207
			c0,0,1.161-0.017,1.161,1.512C11.839,45.261,10.973,45.394,10.516,45.404L10.516,45.404z M18.845,39.15
			c-4.237,0-4.233,4.232-4.233,4.232s-0.291,4.21,4.233,4.21c0,0,3.767,0.216,3.767-2.928h-1.938c0,0,0.064,1.183-1.767,1.183
			c0,0-1.938,0.131-1.938-1.916h5.707C22.678,43.931,23.302,39.15,18.845,39.15L18.845,39.15z M16.949,42.461
			c0,0,0.237-1.698,1.939-1.698c1.7,0,1.679,1.698,1.679,1.698H16.949z M21.019,38.354h-4.545v-1.358h4.545V38.354L21.019,38.354z"
			/>
	</g>
	<path fill-rule="evenodd" clip-rule="evenodd" fill="#FFFFFF" d="M74.83,6.779h-9.515c-1.617,0-2.929,1.31-2.929,2.927v9.515
		c0,1.617,1.312,2.927,2.929,2.927h9.515c1.617,0,2.927-1.31,2.927-2.927V9.706C77.757,8.089,76.447,6.779,74.83,6.779z
		 M75.604,17.888c0,1.166-0.943,2.108-2.108,2.108h-6.85c-1.164,0-2.107-0.943-2.107-2.108v-6.849c0-1.166,0.943-2.108,2.107-2.108
		h6.85c1.165,0,2.108,0.943,2.108,2.108V17.888z"/>
	<path fill-rule="evenodd" clip-rule="evenodd" fill="#FFFFFF" d="M72.743,10.15H67.4c-0.906,0-1.643,0.735-1.643,1.644v5.339
		c0,0.909,0.736,1.644,1.643,1.644h5.343c0.906,0,1.644-0.735,1.644-1.644v-5.339C74.387,10.885,73.649,10.15,72.743,10.15z
		 M70.095,17.27c-1.582,0-2.864-1.282-2.864-2.864c0-1.58,1.282-2.862,2.864-2.862c1.583,0,2.863,1.282,2.863,2.862
		C72.958,15.988,71.678,17.27,70.095,17.27z"/>
	<circle fill-rule="evenodd" clip-rule="evenodd" fill="#FFFFFF" cx="70.099" cy="14.398" r="1.707"/>
	<path fill-rule="evenodd" clip-rule="evenodd" fill="#FFFFFF" d="M98.346,46.155c4.254,0.547,6.409-3.794,6.028-7.471
		c-0.328-3.18-3.287-5.411-6.962-5.179c-4.014,0.253-7.035,3.37-6.538,7.302c0.167,1.315,0.8,2.562,2.379,2.801
		c0.91-1.35-0.261-1.855-0.426-2.887c-0.833-5.167,6.372-7.413,8.575-3.65c1.282,2.189,0.061,5.666-1.104,6.707
		c-0.951,0.852-3.1,0.855-3.228-0.764c-0.085-1.105,1.759-4.119,0.597-5.263c-1.116-1.099-2.694,0.388-2.889,1.443
		c-0.168,0.925,0.257,1.762,0.257,2.547c-0.003,0.832-0.506,2.051-0.766,3.142c-0.458,1.923-0.994,4.037-0.509,6.113
		c1.666-1.249,2.155-3.675,2.716-6.029C96.974,45.554,97.648,46.065,98.346,46.155z"/>
	<circle fill-rule="evenodd" clip-rule="evenodd" fill="#FFFFFF" cx="37.602" cy="42.241" r="4.028"/>
	<circle fill-rule="evenodd" clip-rule="evenodd" fill="#FFFFFF" cx="46.509" cy="42.241" r="4.028"/>
	<rect x="17.838" y="56.126" fill="none" width="17.837" height="17.837"/>
	<rect x="55.398" y="26.641" fill-rule="evenodd" clip-rule="evenodd" fill="#0423D4" width="28.906" height="29.24"/>
	<path fill="#FFFFFF" d="M66.49,55.733l0.046-3.324c0,0-1.708,0.231-2.77-0.139c-1.062-0.369-1.57-0.785-2.17-2.308
		s-1.754-1.477-1.801-1.939s1.524-0.369,2.078,0.277c0.554,0.646,1.524,2.632,3.37,2.355c1.674-0.251,1.339-0.323,1.339-0.323
		s0.369-1.754,0.831-1.847c0.462-0.092-6.103,0.137-6.325-6.417c-0.092-2.724,1.477-4.386,1.477-4.386s-0.646-1.708,0.231-3.694
		c2.031-0.046,3.232,1.339,3.647,1.477c2.262-0.554,4.848-0.6,7.018-0.046c1.293-0.785,3.324-1.708,3.74-1.431
		c0.416,0.277,0.877,2.585,0.277,3.694c0.508,0.831,1.385,1.801,1.339,3.74c-0.046,1.939,0.554,6.002-6.279,7.064
		c0.646,0.508,0.831,1.477,0.877,2.031c0.092,1.062,0.046,5.263,0.046,5.263L66.49,55.733z"/>
</g>
<g id="Eines_01">
	<defs>
		<rect id="SVGID_1_" y="55.82" width="111.866" height="36.263"/>
	</defs>
	<clipPath id="SVGID_2_">
		<use xlink:href="#SVGID_1_"  overflow="visible"/>
	</clipPath>
	<g id="llapis_taula" clip-path="url(#SVGID_2_)">
		<path fill="#0033CC" d="M38.521,68.116C42.387,63.373,49.405,55,53.487,50c1.629,0,4.125,0,5.295,0
			c-5.421,7-17.057,20.433-17.057,20.433s-2.578,2.151-4.128,2.865c-0.41,0.198-1.185-0.428-1.053-0.918
			C36.946,70.851,38.352,68.323,38.521,68.116z"/>
		<path fill="#FFFFFF" d="M51.07,59.642c-0.882-2.93-3.538-2.47-3.651-2.448l-0.063-0.34c0.031-0.006,3.074-0.535,4.045,2.69
			L51.07,59.642z"/>
		<path fill="#F7F7F8" d="M45.003,63.147c-0.582-0.626,0.303-1.454,0.621-1.95l-0.006-0.009c0.1-0.114,4.517-5.455,6.841-8.263
			c0.015-0.019,0.046-0.058,0.092-0.117c1.522-1.945,2.013-2.196,2.272-2.196c0.061,0,0.118,0.015,0.167,0.045
			c0.058,0.034,0.131,0.104,0.149,0.233c0.11,0.724-1.302,3.286-1.754,3.792l-5.975,7.125C47.171,62.118,45.778,63.98,45.003,63.147
			z M45.848,61.416c0,0-0.945,1.077-0.542,1.488c0.387,0.395,1.387-1.009,1.835-1.591l5.983-6.996
			c1.269-1.421,1.718-3.061,1.679-3.425c-0.128,0.024-0.578,0.302-1.98,2.095c-0.048,0.061-0.083,0.122-0.098,0.141l-3.42,4.145
			C46.687,60.436,46.042,61.225,45.848,61.416z"/>
		<path fill="#FFFFFF" d="M47.307,60.744c-0.2,0-0.353-0.059-0.462-0.177c-0.239-0.259-0.116-0.67-0.102-0.717l0.364,0.116
			l-0.181-0.058l0.184,0.057c-0.025,0.079-0.053,0.267,0.019,0.343c0.054,0.062,0.199,0.07,0.396,0.024l0.082,0.375
			C47.499,60.732,47.397,60.744,47.307,60.744z"/>
		<path fill="#0033CC" d="M37.57,72.178c0.129,0.101,0.137,0.307,0.018,0.462l-0.806,1.039c-0.121,0.154-0.323,0.199-0.452,0.099
			l-0.034-0.027c-0.129-0.101-0.138-0.307-0.017-0.462l0.806-1.038c0.12-0.153,0.322-0.197,0.452-0.099L37.57,72.178z"/>
		<path fill="none" stroke="#0033CC" stroke-width="0.4961" stroke-miterlimit="10" d="M53.001,62.568
			c-1.997,7.758-7.72,11.947-16.503,11.025"/>
		
			<line fill="none" stroke="#0033CC" stroke-width="0.3402" stroke-miterlimit="10" x1="53.001" y1="62.568" x2="50.352" y2="73.58"/>
		<ellipse fill="#0033CC" cx="50.435" cy="73.335" rx="0.642" ry="0.652"/>
		<rect x="52.378" y="61.946" fill="#0033CC" width="1.247" height="1.246"/>
		<path fill="none" stroke="#0033CC" stroke-width="0.4961" stroke-miterlimit="10" d="M18.278,73.763
			c1.916,0,3.735-0.107,5.546-0.761c3.203-1.156,2.69-3.015,5.858-4.322c2.587-1.067,4.898-0.155,6.093-4.514"/>
	</g>
	<g id="Photoshop" clip-path="url(#SVGID_2_)">
		<rect x="55.953" y="70.016" fill="#0033CC" width="2" height="2"/>
		<rect x="65.904" y="60.064" fill="#0033CC" width="2" height="2"/>
		<rect x="57.953" y="68.016" fill="#0033CC" width="2" height="2"/>
		<rect x="55.953" y="68.016" fill="#0033CC" width="2" height="2"/>
		<rect x="59.933" y="66.035" fill="#0033CC" width="2" height="2"/>
		<rect x="61.933" y="64.035" fill="#0033CC" width="2" height="2"/>
		<rect x="63.913" y="62.055" fill="#0033CC" width="2" height="2"/>
		<rect x="63.934" y="58.074" fill="#0033CC" width="2" height="2"/>
		<rect x="65.914" y="56.037" fill="#0033CC" width="2" height="2"/>
		<rect x="69.913" y="60.035" fill="#0033CC" width="2" height="2"/>
		<rect x="67.914" y="62.055" fill="#0033CC" width="2" height="2"/>
		<rect x="67.893" y="58.074" fill="#0033CC" width="2" height="2"/>
		<rect x="69.93" y="56.037" fill="#0033CC" width="2" height="2"/>
		<rect x="57.935" y="66.035" fill="#0033CC" width="2" height="2"/>
		<rect x="59.935" y="64.035" fill="#0033CC" width="2" height="2"/>
		<rect x="61.915" y="62.055" fill="#0033CC" width="2" height="2"/>
		<rect x="63.915" y="60.055" fill="#0033CC" width="2" height="2"/>
		<rect x="65.895" y="58.074" fill="#0033CC" width="2" height="2"/>
		<rect x="67.932" y="56.037" fill="#0033CC" width="2" height="2"/>
		<rect x="61.934" y="66.035" fill="#0033CC" width="2" height="2"/>
		<rect x="63.934" y="64.035" fill="#0033CC" width="2" height="2"/>
		<rect x="65.914" y="62.055" fill="#0033CC" width="2" height="2"/>
		<rect x="67.914" y="60.055" fill="#0033CC" width="2" height="2"/>
		<rect x="69.894" y="58.074" fill="#0033CC" width="2" height="2"/>
		<rect x="59.933" y="68.016" fill="#0033CC" width="2" height="2"/>
		<rect x="57.934" y="70.015" fill="#0033CC" width="2" height="2"/>
		<rect x="54.973" y="72.016" fill="#0033CC" width="1" height="1"/>
		<rect x="54.973" y="71.015" fill="#0033CC" width="1" height="1"/>
		<rect x="55.973" y="71.998" fill="#0033CC" width="1.027" height="1.017"/>
		<rect x="54" y="73.016" fill="#0033CC" width="1" height="1"/>
		<rect x="66.917" y="60.071" fill="#FFFFFF" width="1" height="1"/>
		<rect x="65.943" y="61.071" fill="#FFFFFF" width="1" height="1"/>
		<rect x="68.916" y="58.072" fill="#FFFFFF" width="1" height="1"/>
		<rect x="67.942" y="59.072" fill="#FFFFFF" width="1" height="1"/>
		<rect x="70.96" y="56.028" fill="#FFFFFF" width="1" height="1"/>
		<rect x="69.986" y="57.028" fill="#FFFFFF" width="1" height="1"/>
	</g>
	<g id="Capa_11" clip-path="url(#SVGID_2_)">
		<linearGradient id="SVGID_3_" gradientUnits="userSpaceOnUse" x1="82.4639" y1="61.0718" x2="85.0811" y2="61.0718">
			<stop  offset="0" style="stop-color:#336AF2"/>
			<stop  offset="0.1337" style="stop-color:#336DF2"/>
			<stop  offset="0.2328" style="stop-color:#3276F4"/>
			<stop  offset="0.3207" style="stop-color:#3286F6"/>
			<stop  offset="0.4022" style="stop-color:#309DF9"/>
			<stop  offset="0.4784" style="stop-color:#2FBAFC"/>
			<stop  offset="0.5215" style="stop-color:#2ECEFF"/>
			<stop  offset="0.6081" style="stop-color:#30AFFB"/>
			<stop  offset="0.7105" style="stop-color:#3191F7"/>
			<stop  offset="0.8114" style="stop-color:#327BF4"/>
			<stop  offset="0.9091" style="stop-color:#336EF3"/>
			<stop  offset="1" style="stop-color:#336AF2"/>
		</linearGradient>
		<circle fill="url(#SVGID_3_)" cx="83.772" cy="61.071" r="1.309"/>
	</g>
	<g id="Llapis" clip-path="url(#SVGID_2_)">
		<g id="Capa_5">
		</g>
		<path fill="#0033CC" d="M20.818,67.375C25.257,61.875,33.405,52,37.487,47c2.062,0,3.813,0,5.62,0
			c-5.139,7-19.163,23.018-19.163,23.018s-4.056,2.92-5.922,4.074C18.525,72.672,20.575,67.678,20.818,67.375z"/>
		<path fill="#FFFFFF" d="M24.02,70.129c-0.241-0.018-0.691-0.258-0.661-1.05c0.001-0.047-0.005-0.062-0.005-0.062
			c-0.044-0.013-0.272,0.047-0.409,0.085c-0.33,0.093-0.744,0.204-1.022-0.021c-0.191-0.152-0.271-0.42-0.25-0.818
			c0.021-0.361-0.066-0.612-0.264-0.773c-0.38-0.304-1.114-0.191-1.365-0.121l-0.099-0.355c0.044-0.014,1.093-0.297,1.696,0.188
			c0.294,0.236,0.428,0.601,0.402,1.083c-0.015,0.262,0.024,0.437,0.112,0.508c0.132,0.106,0.443,0.021,0.693-0.046
			c0.289-0.081,0.562-0.155,0.744-0.01c0.097,0.076,0.144,0.196,0.138,0.356c-0.024,0.635,0.312,0.665,0.316,0.666L24.02,70.129z"/>
		<path fill="#FFFFFF" d="M19.019,73.475l-0.368-0.05c0.035-0.261-0.232-0.495-0.373-0.557l0.146-0.339
			C18.646,72.624,19.083,72.982,19.019,73.475z"/>
		<polygon fill="#FFFFFF" points="21.891,68.062 21.756,67.768 39.855,46 40.35,46 		"/>
		<polygon fill="#FFFFFF" points="23.671,69.058 23.385,68.82 41.947,46.357 42.403,46.394 		"/>
	</g>
	<g id="XMLID_1_" clip-path="url(#SVGID_2_)">
		<g>
			<linearGradient id="SVGID_4_" gradientUnits="userSpaceOnUse" x1="72.0684" y1="66.6694" x2="88.1787" y2="66.6694">
				<stop  offset="0" style="stop-color:#336AF2"/>
				<stop  offset="0.1337" style="stop-color:#336DF2"/>
				<stop  offset="0.2328" style="stop-color:#3276F4"/>
				<stop  offset="0.3207" style="stop-color:#3286F6"/>
				<stop  offset="0.4022" style="stop-color:#309DF9"/>
				<stop  offset="0.4784" style="stop-color:#2FBAFC"/>
				<stop  offset="0.5215" style="stop-color:#2ECEFF"/>
				<stop  offset="0.6081" style="stop-color:#30AFFB"/>
				<stop  offset="0.7105" style="stop-color:#3191F7"/>
				<stop  offset="0.8114" style="stop-color:#327BF4"/>
				<stop  offset="0.9091" style="stop-color:#336EF3"/>
				<stop  offset="1" style="stop-color:#336AF2"/>
			</linearGradient>
			<path fill="url(#SVGID_4_)" d="M88.179,60.064l-6.4,9.18c0,0-8.521,4.47-9.71,4.74l9.04-12.8c0.67,3.17,3.58,2.569,3.58,2.569
				l3.04-4.399C87.968,59.704,88.179,60.064,88.179,60.064z"/>
			<path fill="#0033CC" d="M87.729,59.354l-3.04,4.399c0,0-2.91,0.601-3.58-2.569l6.09-2.511
				C87.318,58.754,87.538,59.055,87.729,59.354z"/>
			<path fill="#0033CC" d="M87.729,59.354c-0.19-0.3-0.41-0.601-0.53-0.681l-6.09,2.511l5.96-8.45l4.42,1.18L87.729,59.354z"/>
		</g>
	</g>
	<g id="Ploma" clip-path="url(#SVGID_2_)">
		<path fill="#0033CC" d="M0.253,73.35c0,0,1.853-1.822,1.015-4.934c2.448-2.289,4.746-4.622,4.746-4.622l3.048,1.635
			c0,0-2.513,3.596-3.393,5.71c-0.861,0.173-3.019,0.369-4.825,2.558C0.662,73.558,0.253,73.35,0.253,73.35z"/>
		<path fill="#0033CC" d="M9.761,65.545c-0.155,0.188-0.47,0.343-0.681,0.102c-0.452-0.515-2.839-1.731-3.173-1.869
			c-0.237-0.098-0.273-0.387-0.12-0.575l0.081-0.098c0.156-0.188,0.461-0.233,0.681-0.103l3.173,1.871
			c0.222,0.13,0.275,0.386,0.119,0.573L9.761,65.545z"/>
		<path fill="#0033CC" d="M6.286,63.425c4.298-6.351,10.49-13.384,14.863-19.492c2.3-0.022,5.031-0.048,7.044-0.067
			c-5.062,6.114-18.8,21.431-18.8,21.431S5.793,64.149,6.286,63.425z"/>
		<polygon fill="#FFFFFF" points="0.405,73.864 0.203,73.712 3.731,69.142 3.94,69.284 		"/>
		<circle fill="#FFFFFF" cx="3.809" cy="69.278" r="0.865"/>
		<g>
			<path fill="#1F1D21" d="M6.852,64.335c0,0,0.874,0.316,1.633,0.962"/>
			<path fill="#FFFFFF" d="M8.487,65.502c-0.048,0-0.096-0.016-0.135-0.048c-0.723-0.616-1.562-0.923-1.57-0.927
				c-0.106-0.039-0.162-0.155-0.123-0.262c0.038-0.104,0.155-0.159,0.262-0.122c0.037,0.015,0.918,0.336,1.697,0.999
				c0.085,0.073,0.096,0.202,0.022,0.288C8.6,65.477,8.544,65.501,8.487,65.502z"/>
		</g>
		<path fill="#FFFFFF" d="M25.982,44.887c0,0-13.459,15.777-14.089,16.484c-0.63,0.706-0.189,0.75,0.295,0.289
			c0.487-0.458,14.235-16.777,14.235-16.777L25.982,44.887z"/>
	</g>
	<g id="Pinzell" clip-path="url(#SVGID_2_)">
		<g>
			<path fill="#FFFFFF" d="M91.164,73.701c0.011-0.062,0.016-0.121,0.008-0.182l-0.024-0.197l-0.252,0.163
				c-0.105,0.07-0.209,0.139-0.344,0.202c1.574-1.366,1.764-2.265,2.207-4.363l0.164-0.766c0.291-1.329,1.396-2.349,2.565-3.43
				c0.586-0.541,1.192-1.101,1.69-1.706c-0.011,0.042,0.299,0.071,1.342,0.657c1.104,0.618,1.097,0.892,1.096,0.894
				c-0.007,0.002-0.091,0.115-0.184,0.242c-0.132,0.18-0.281,0.384-0.309,0.429c-0.464,0.758-0.696,1.486-0.922,2.19
				c-0.437,1.37-0.813,2.552-2.763,3.502c-0.232,0.113-0.493,0.23-0.774,0.357C93.614,72.167,92.328,72.746,91.164,73.701z"/>
			<path fill="#0033CC" d="M97.192,63.602c0.139,0.033,0.493,0.152,1.268,0.586c0.748,0.42,0.957,0.669,1.013,0.76
				c-0.035,0.049-0.083,0.114-0.134,0.183c-0.136,0.185-0.293,0.401-0.322,0.448c-0.472,0.77-0.707,1.506-0.934,2.218
				c-0.428,1.342-0.798,2.501-2.699,3.427c-0.23,0.112-0.489,0.228-0.767,0.353c-0.998,0.449-2.207,0.993-3.33,1.863l-0.031-0.255
				c1.049-1.112,1.251-2.07,1.625-3.835c0.05-0.239,0.104-0.493,0.164-0.766c0.282-1.291,1.373-2.299,2.528-3.365
				C96.131,64.706,96.705,64.175,97.192,63.602 M97.117,63.34c-0.026,0-0.035,0.004-0.035,0.004
				c-1.462,1.775-3.83,3.126-4.281,5.189c-0.627,2.865-0.613,3.713-2.814,5.459c0.595-0.118,0.807-0.293,1.061-0.457
				c0.019,0.15-0.065,0.324-0.101,0.516c1.536-1.376,3.393-2.039,4.548-2.601c3.008-1.466,2.379-3.525,3.736-5.739
				c0.047-0.077,0.452-0.62,0.504-0.697c0,0,0.172-0.3-1.152-1.042C97.562,63.399,97.216,63.34,97.117,63.34L97.117,63.34z"/>
		</g>
		<g id="XMLID_2_">
			<g>
				<path fill="#0033CC" d="M96.904,68.93c0.586,0,0.703,0.49,0.43,1.1c-0.01,0.01-0.02,0.02-0.02,0.03
					c-0.4,0.5-0.957,0.97-1.817,1.39c-1.162,0.56-3.018,1.22-4.551,2.6c0.039-0.19,0.117-0.37,0.098-0.52
					c-0.254,0.17-0.459,0.34-1.055,0.46c2.197-1.74,2.188-2.59,2.813-5.46c0.371-1.72,1.836-2.62,3.164-3.9
					c-0.899,1.45-0.195,1.5-0.254,2.75C95.664,68.08,95.869,68.93,96.904,68.93z"/>
			</g>
		</g>
		<path fill="#0033CC" d="M100.074,64.877c2.149-2.564,13.781-15.353,18.466-21.011c-2.014,0.019-4.744,0.045-7.044,0.067
			c-4.281,5.978-10.292,12.838-14.576,19.082l-0.023-0.014c-0.22-0.13-0.525-0.085-0.681,0.103l-0.081,0.098
			c-0.154,0.188-0.182,0.575,0.056,0.673c0.089,0.037,1.031,0.344,1.906,0.844c0.922,0.578,1.123,0.93,1.234,0.969
			c0.211,0.241,0.622,0.045,0.777-0.143l0.081-0.099C100.343,65.261,100.291,65.008,100.074,64.877z M102.24,61.371
			c0.63-0.707,14.089-16.484,14.089-16.484l0.441-0.004c0,0-13.748,16.319-14.235,16.777
			C102.051,62.121,101.61,62.077,102.24,61.371z M99.183,65.296c-0.023,0.02-0.053,0.029-0.081,0.029
			c-0.035,0-0.07-0.015-0.096-0.044c-0.419-0.496-1.394-0.969-1.909-1.172c-0.064-0.025-0.199-0.09-0.164-0.15
			c0.102-0.178,0.177-0.126,0.242-0.1c0.156,0.057,1.464,0.601,2.022,1.26C99.241,65.172,99.235,65.251,99.183,65.296z"/>
		<path fill="none" stroke="#FFFFFF" stroke-width="0.25" stroke-linecap="round" stroke-miterlimit="10" d="M94.562,67.442
			c-0.9,0.674-0.707,2.374-1.413,3.111"/>
		<path fill="none" stroke="#FFFFFF" stroke-width="0.25" stroke-linecap="round" stroke-miterlimit="10" d="M93.662,71.419
			c0.481-0.321,0.9-0.257,1.482-0.703c0.463-0.355,0.753-0.817,1.212-1.029"/>
		<path fill="none" stroke="#FFFFFF" stroke-width="0.25" stroke-linecap="round" stroke-miterlimit="10" d="M95.586,68.757
			c-0.512,0.101-0.743,0.93-1.024,1.123"/>
		<path fill="none" stroke="#0033CC" stroke-width="0.25" stroke-linecap="round" stroke-miterlimit="10" d="M97.928,65.77
			c-0.468,0.346-0.511,1.48-1.315,1.961"/>
		<path fill="none" stroke="#0033CC" stroke-width="0.25" stroke-linecap="round" stroke-miterlimit="10" d="M96.933,65.165
			c-0.322,0.157-0.891,0.605-1.194,0.997"/>
	</g>
	<g id="Capa_12" display="none" clip-path="url(#SVGID_2_)">
		<polygon display="inline" fill="#0033CC" points="0,92.083 14.757,74.047 17.963,74.047 17.963,92.083 14.893,92.083 
			14.925,78.12 3.489,92.083 		"/>
		<rect x="6.239" y="85.958" display="inline" fill="#0033CC" width="9.032" height="1.833"/>
	</g>
</g>
<g id="Eines_02">
	<defs>
		<rect id="SVGID_5_" y="74.104" width="17.879" height="18.022"/>
	</defs>
	<clipPath id="SVGID_6_">
		<use xlink:href="#SVGID_5_"  overflow="visible"/>
	</clipPath>
	<g id="Capa_24" clip-path="url(#SVGID_6_)">
		<g id="llapis_taula_copia">
			<g>
				<path fill="#0033CC" d="M15.022,81.102c6.118-0.112,17.043-0.162,23.497-0.276c1.052,1.244,2.665,3.15,3.42,4.043
					c-8.846,0.382-26.616,0.176-26.616,0.176s-3.307-0.578-4.853-1.3c-0.416-0.185-0.439-1.181,0.021-1.397
					C11.918,81.666,14.755,81.107,15.022,81.102z"/>
				<path fill="#FFFFFF" d="M29.597,85.209c1.667-2.566-0.4-4.296-0.489-4.368l0.219-0.268c0.025,0.02,2.394,2.001,0.559,4.825
					L29.597,85.209z"/>
				<path fill="#F7F7F8" d="M23.002,82.842c0.102-0.848,1.306-0.708,1.89-0.785l0.003-0.01c0.152,0.003,7.082-0.075,10.727-0.115
					c0.024-0.001,0.074-0.002,0.148-0.005c2.468-0.094,2.977,0.119,3.144,0.316c0.039,0.047,0.065,0.1,0.073,0.157
					c0.011,0.066,0.006,0.167-0.082,0.265c-0.482,0.552-3.35,1.129-4.027,1.11l-9.299,0.041
					C25.188,83.832,22.867,83.972,23.002,82.842z M24.87,82.368c0,0-1.433-0.026-1.486,0.548c-0.051,0.55,1.666,0.407,2.4,0.374
					l9.205,0.049c1.904,0.051,3.447-0.665,3.699-0.931c-0.101-0.082-0.604-0.246-2.878-0.159c-0.077,0.003-0.147,0.016-0.171,0.016
					l-5.373,0.066C26.16,82.375,25.141,82.393,24.87,82.368z"/>
				<path fill="#FFFFFF" d="M26.325,83.048c-0.129-0.152-0.183-0.308-0.163-0.467c0.043-0.349,0.437-0.521,0.482-0.54l0.146,0.353
					l-0.073-0.175l0.075,0.177c-0.077,0.032-0.238,0.132-0.249,0.236c-0.013,0.082,0.075,0.197,0.237,0.318l-0.233,0.305
					C26.458,83.187,26.384,83.117,26.325,83.048z"/>
				<path fill="#0033CC" d="M11.307,83c0.006,0.163-0.146,0.303-0.341,0.312L9.51,83.368C9.314,83.375,9,83.25,9,83.086v-0.043
					c0-0.163,0.287-0.303,0.484-0.311l1.384-0.055c0.194-0.008,0.394,0.119,0.403,0.281L11.307,83z"/>
				
					<ellipse transform="matrix(0.6459 0.7634 -0.7634 0.6459 78.0663 18.8313)" fill="#0033CC" cx="18.734" cy="93.569" rx="0.642" ry="0.652"/>
				
					<rect x="27.987" y="87.951" transform="matrix(0.6459 0.7634 -0.7634 0.6459 77.75 9.5225)" fill="#0033CC" width="1.247" height="1.246"/>
			</g>
		</g>
		<g id="Photoshop_copia">
			<g>
				
					<rect x="10.362" y="85.868" transform="matrix(-0.2275 0.9738 -0.9738 -0.2275 98.5368 95.5632)" fill="#0033CC" width="2" height="2"/>
				
					<rect x="17.789" y="97.821" transform="matrix(-0.2275 0.9738 -0.9738 -0.2275 119.2933 103.0043)" fill="#0033CC" width="2" height="2"/>
				
					<rect x="11.855" y="88.27" transform="matrix(-0.2275 0.9738 -0.9738 -0.2275 102.7085 97.0587)" fill="#0033CC" width="2" height="2"/>
				
					<rect x="12.309" y="86.323" transform="matrix(-0.2275 0.9738 -0.9738 -0.2275 101.3704 94.2251)" fill="#0033CC" width="2" height="2"/>
				
					<rect x="13.333" y="90.648" transform="matrix(-0.2275 0.9738 -0.9738 -0.2275 106.8387 98.5383)" fill="#0033CC" width="2" height="2"/>
				
					<rect x="14.825" y="93.051" transform="matrix(-0.2275 0.9738 -0.9738 -0.2275 111.0104 100.0338)" fill="#0033CC" width="2" height="2"/>
				
					<rect x="16.303" y="95.43" transform="matrix(-0.2275 0.9738 -0.9738 -0.2275 115.1414 101.5147)" fill="#0033CC" width="2" height="2"/>
				
					<rect x="20.175" y="96.355" transform="matrix(-0.2275 0.9738 -0.9738 -0.2275 120.7947 98.8806)" fill="#0033CC" width="2" height="2"/>
				
					<rect x="21.708" y="98.747" transform="matrix(-0.2275 0.9738 -0.9738 -0.2275 125.0059 100.3236)" fill="#0033CC" width="2" height="2"/>
				
					<rect x="16.905" y="101.732" transform="matrix(-0.2275 0.9738 -0.9738 -0.2275 122.0169 108.6643)" fill="#0033CC" width="2" height="2"/>
				
					<rect x="15.393" y="99.326" transform="matrix(-0.2275 0.9738 -0.9738 -0.2275 117.8182 107.1833)" fill="#0033CC" width="2" height="2"/>
				
					<rect x="19.274" y="100.21" transform="matrix(-0.2275 0.9738 -0.9738 -0.2275 123.4434 104.4897)" fill="#0033CC" width="2" height="2"/>
				
					<rect x="20.795" y="102.657" transform="matrix(-0.2275 0.9738 -0.9738 -0.2275 127.6925 106.0129)" fill="#0033CC" width="2" height="2"/>
				
					<rect x="13.787" y="88.703" transform="matrix(-0.2275 0.9738 -0.9738 -0.2275 105.5019 95.7075)" fill="#0033CC" width="2" height="2"/>
				
					<rect x="15.28" y="91.105" transform="matrix(-0.2275 0.9738 -0.9738 -0.2275 109.6736 97.203)" fill="#0033CC" width="2" height="2"/>
				
					<rect x="16.758" y="93.484" transform="matrix(-0.2275 0.9738 -0.9738 -0.2275 113.8046 98.6838)" fill="#0033CC" width="2" height="2"/>
				
					<rect x="18.251" y="95.887" transform="matrix(-0.2275 0.9738 -0.9738 -0.2275 117.9763 100.1793)" fill="#0033CC" width="2" height="2"/>
				
					<rect x="19.729" y="98.265" transform="matrix(-0.2275 0.9738 -0.9738 -0.2275 122.1066 101.6588)" fill="#0033CC" width="2" height="2"/>
				
					<rect x="21.249" y="100.712" transform="matrix(-0.2275 0.9738 -0.9738 -0.2275 126.3557 103.182)" fill="#0033CC" width="2" height="2"/>
				
					<rect x="12.878" y="92.597" transform="matrix(-0.2275 0.9738 -0.9738 -0.2275 108.1774 101.3733)" fill="#0033CC" width="2" height="2"/>
				
					<rect x="14.37" y="94.999" transform="matrix(-0.2275 0.9738 -0.9738 -0.2275 112.3491 102.8688)" fill="#0033CC" width="2" height="2"/>
				
					<rect x="15.848" y="97.378" transform="matrix(-0.2275 0.9738 -0.9738 -0.2275 116.4801 104.3497)" fill="#0033CC" width="2" height="2"/>
				
					<rect x="17.341" y="99.781" transform="matrix(-0.2275 0.9738 -0.9738 -0.2275 120.6518 105.8452)" fill="#0033CC" width="2" height="2"/>
				
					<rect x="18.819" y="102.159" transform="matrix(-0.2275 0.9738 -0.9738 -0.2275 124.7822 107.3247)" fill="#0033CC" width="2" height="2"/>
				
					<rect x="11.404" y="90.198" transform="matrix(-0.2275 0.9738 -0.9738 -0.2275 104.0329 99.8632)" fill="#0033CC" width="2" height="2"/>
				
					<rect x="9.912" y="87.796" transform="matrix(-0.2275 0.9738 -0.9738 -0.2275 99.8633 98.3685)" fill="#0033CC" width="2" height="2"/>
				
					<rect x="9.738" y="84.585" transform="matrix(-0.2275 0.9738 -0.9738 -0.2275 95.4214 94.4699)" fill="#0033CC" width="1" height="1"/>
				
					<rect x="10.713" y="84.813" transform="matrix(-0.2275 0.9738 -0.9738 -0.2275 96.8396 93.8002)" fill="#0033CC" width="1" height="1"/>
				
					<rect x="9.502" y="85.565" transform="matrix(-0.2275 0.9738 -0.9738 -0.2275 96.1117 95.9)" fill="#0033CC" width="1.027" height="1.017"/>
				
					<rect x="8.985" y="83.41" transform="matrix(-0.2275 0.9738 -0.9738 -0.2275 93.3536 93.7603)" fill="#0033CC" width="1" height="1"/>
				
					<rect x="18.652" y="98.933" transform="matrix(-0.2275 0.9738 -0.9738 -0.2275 120.3351 103.4007)" fill="#FFFFFF" width="1" height="1"/>
				
					<rect x="17.9" y="97.757" transform="matrix(-0.2275 0.9738 -0.9738 -0.2275 118.2669 102.6903)" fill="#FFFFFF" width="1" height="1"/>
				
					<rect x="20.144" y="101.334" transform="matrix(-0.2275 0.9738 -0.9738 -0.2275 124.5047 104.8954)" fill="#FFFFFF" width="1" height="1"/>
				
					<rect x="19.392" y="100.159" transform="matrix(-0.2275 0.9738 -0.9738 -0.2275 122.4365 104.1851)" fill="#FFFFFF" width="1" height="1"/>
				
					<rect x="21.67" y="103.79" transform="matrix(-0.2275 0.9738 -0.9738 -0.2275 128.7682 106.4239)" fill="#FFFFFF" width="1" height="1"/>
				
					<rect x="20.917" y="102.614" transform="matrix(-0.2275 0.9738 -0.9738 -0.2275 126.6999 105.7134)" fill="#FFFFFF" width="1" height="1"/>
			</g>
		</g>
		<g id="Llapis_copia">
			<g id="Capa_5_copia">
			</g>
			<g>
				<path fill="#0033CC" d="M11.4,76.09c4.011-5.82,11.389-16.282,15.082-21.576c2.056-0.156,3.802-0.288,5.604-0.425
					c-4.595,7.368-17.369,24.4-17.369,24.4s-3.823,3.218-5.598,4.51C9.514,81.545,11.18,76.411,11.4,76.09z"/>
				<path fill="#FFFFFF" d="M14.8,78.595c-0.242,0.001-0.708-0.205-0.738-0.997c-0.002-0.047-0.01-0.062-0.01-0.062
					c-0.045-0.009-0.268,0.067-0.402,0.116c-0.322,0.117-0.726,0.26-1.021,0.057c-0.201-0.138-0.302-0.398-0.311-0.797
					c-0.007-0.362-0.112-0.606-0.321-0.75c-0.402-0.274-1.126-0.107-1.37-0.018l-0.126-0.347c0.043-0.017,1.067-0.379,1.706,0.059
					c0.311,0.213,0.473,0.567,0.483,1.05c0.005,0.262,0.057,0.433,0.15,0.498c0.139,0.096,0.444-0.012,0.688-0.098
					c0.283-0.103,0.548-0.197,0.741-0.066c0.102,0.069,0.158,0.185,0.165,0.345c0.024,0.635,0.361,0.64,0.365,0.64L14.8,78.595z"/>
				<path fill="#FFFFFF" d="M10.066,82.308l-0.371-0.022c0.015-0.263-0.268-0.476-0.414-0.527l0.12-0.349
					C9.631,81.488,10.094,81.813,10.066,82.308z"/>
				<polygon fill="#FFFFFF" points="12.521,76.695 12.365,76.411 28.768,53.338 29.261,53.301 				"/>
				<polygon fill="#FFFFFF" points="14.372,77.553 14.069,77.338 30.881,53.537 31.338,53.539 				"/>
			</g>
		</g>
		<g id="Ploma_copia">
			<g>
				<path fill="#0033CC" d="M8.464,82.741c0,0-0.875-2.448-4.051-2.994c-1.049-3.183-2.2-6.249-2.2-6.249l2.765-2.079
					c0,0,2.207,3.791,3.756,5.478c-0.205,0.854-0.933,2.895,0.294,5.453C8.825,82.458,8.464,82.741,8.464,82.741z"/>
				<path fill="#0033CC" d="M5.376,70.834c0.106,0.219,0.113,0.571-0.193,0.661c-0.657,0.194-2.764,1.848-3.029,2.094
					c-0.188,0.174-0.466,0.085-0.572-0.133l-0.054-0.114c-0.105-0.221-0.018-0.517,0.192-0.662l3.031-2.093
					c0.211-0.147,0.466-0.087,0.571,0.132L5.376,70.834z"/>
				<path fill="#0033CC" d="M1.992,73.097C-1.966,66.529-5.747,57.955-9.452,51.42c0.946-2.096,2.07-4.585,2.898-6.421
					c3.422,7.162,11.55,26.063,11.55,26.063S2.442,73.848,1.992,73.097z"/>
				<polygon fill="#FFFFFF" points="8.994,82.819 8.771,82.939 6.107,77.817 6.323,77.687 				"/>
				<circle fill="#FFFFFF" cx="6.263" cy="77.804" r="0.865"/>
				<g>
					<path fill="#1F1D21" d="M3.056,72.965c0,0,0.654-0.66,1.559-1.078"/>
					<path fill="#FFFFFF" d="M4.801,71.972c-0.02,0.044-0.055,0.081-0.1,0.102c-0.863,0.397-1.494,1.029-1.501,1.036
						c-0.079,0.08-0.209,0.082-0.29,0.001c-0.078-0.078-0.08-0.208-0.001-0.289c0.029-0.027,0.69-0.692,1.619-1.12
						C4.631,71.656,4.753,71.7,4.8,71.803C4.827,71.859,4.825,71.92,4.801,71.972z"/>
				</g>
				<path fill="#FFFFFF" d="M-6.556,47.435c0,0,8.662,18.842,9.039,19.71c0.376,0.868,0.601,0.487,0.386-0.146
					c-0.211-0.635-9.244-19.966-9.244-19.966L-6.556,47.435z"/>
			</g>
		</g>
		<g id="Pinzell_copia">
			<g>
				<g>
					<path fill="#FFFFFF" d="M2.223,94.313c-0.109-0.009-0.464-0.088-1.422-0.608c-1.149-0.626-1.14-0.91-1.14-0.913
						c0.008-0.003,0.087-0.117,0.176-0.246c0.132-0.192,0.286-0.416,0.314-0.465c0.457-0.797,0.679-1.56,0.893-2.298
						c0.417-1.435,0.776-2.674,2.748-3.704c0.234-0.122,0.497-0.249,0.78-0.386c1.065-0.515,2.37-1.146,3.54-2.168
						c-0.011,0.066-0.015,0.132-0.006,0.197l0.028,0.2l0.251-0.174c0.114-0.081,0.224-0.159,0.375-0.231
						c-1.6,1.466-1.774,2.402-2.184,4.604l-0.151,0.801c-0.269,1.392-1.375,2.477-2.547,3.626C3.303,93.11,2.711,93.69,2.223,94.313
						z"/>
					<path fill="#0033CC" d="M7.988,83.793l0.04,0.283c-1.048,1.179-1.234,2.179-1.577,4.023c-0.046,0.249-0.096,0.515-0.151,0.8
						c-0.261,1.353-1.354,2.425-2.512,3.561c-0.558,0.548-1.134,1.113-1.619,1.72c-0.142-0.031-0.505-0.146-1.309-0.584
						c-0.793-0.431-1.004-0.689-1.058-0.779c0.035-0.052,0.085-0.124,0.138-0.201c0.135-0.196,0.29-0.423,0.319-0.472
						c0.464-0.81,0.688-1.58,0.904-2.324c0.409-1.408,0.762-2.623,2.685-3.629c0.233-0.122,0.494-0.248,0.775-0.384
						C5.634,85.317,6.86,84.725,7.988,83.793 M8.32,83.166c-1.538,1.464-3.42,2.193-4.587,2.803c-3.04,1.589-2.353,3.718-3.691,6.05
						c-0.046,0.081-0.448,0.655-0.5,0.736c0,0-0.169,0.316,1.199,1.06c1.035,0.563,1.396,0.625,1.504,0.625
						c0.03,0,0.041-0.005,0.041-0.005c1.454-1.878,3.843-3.333,4.259-5.489c0.578-2.994,0.546-3.876,2.756-5.739
						c-0.605,0.135-0.818,0.322-1.073,0.498C8.206,83.549,8.288,83.366,8.32,83.166L8.32,83.166z"/>
				</g>
				<g id="XMLID_3_">
					<g>
						<path fill="#0033CC" d="M2.347,88.619c-0.598,0.012-0.729-0.495-0.463-1.135c0.01-0.011,0.02-0.021,0.019-0.032
							c0.398-0.529,0.956-1.029,1.825-1.485c1.175-0.607,3.055-1.333,4.591-2.801c-0.036,0.198-0.112,0.387-0.089,0.543
							c0.256-0.182,0.461-0.363,1.067-0.501c-2.206,1.857-2.178,2.741-2.754,5.74c-0.342,1.797-1.818,2.765-3.147,4.124
							c0.886-1.528,0.167-1.565,0.2-2.866C3.632,89.477,3.404,88.597,2.347,88.619z"/>
					</g>
				</g>
				<path fill="#0033CC" d="M-0.802,92.903c-2.139,2.713-13.741,16.264-18.402,22.25c2.056-0.063,4.843-0.148,7.191-0.219
					c4.242-6.31,10.233-13.574,14.472-20.162l0.024,0.014c0.227,0.131,0.538,0.077,0.693-0.122l0.081-0.103
					c0.153-0.199,0.173-0.602-0.071-0.699c-0.092-0.036-1.06-0.336-1.965-0.837c-0.954-0.582-1.167-0.944-1.281-0.982
					c-0.221-0.246-0.636-0.034-0.79,0.165l-0.081,0.104C-1.085,92.51-1.026,92.772-0.802,92.903z M-2.938,96.597
					c-0.628,0.749-14.031,17.448-14.031,17.448l-0.45,0.014c0,0,13.686-17.269,14.174-17.755
					C-2.761,95.812-2.31,95.849-2.938,96.597z M0.1,92.448c0.024-0.021,0.053-0.032,0.082-0.032
					c0.036-0.001,0.072,0.014,0.099,0.044c0.438,0.507,1.444,0.978,1.975,1.179c0.066,0.025,0.205,0.089,0.171,0.153
					c-0.1,0.187-0.178,0.135-0.245,0.109c-0.161-0.056-1.508-0.594-2.092-1.268C0.042,92.579,0.047,92.496,0.1,92.448z"/>
				<path fill="none" stroke="#FFFFFF" stroke-width="0.25" stroke-linecap="round" stroke-miterlimit="10" d="M4.771,90.118
					c0.905-0.72,0.67-2.484,1.376-3.267"/>
				<path fill="none" stroke="#FFFFFF" stroke-width="0.25" stroke-linecap="round" stroke-miterlimit="10" d="M5.605,85.961
					c-0.484,0.344-0.913,0.286-1.498,0.763c-0.465,0.38-0.751,0.866-1.216,1.096"/>
				<path fill="none" stroke="#FFFFFF" stroke-width="0.25" stroke-linecap="round" stroke-miterlimit="10" d="M3.697,88.771
					c0.521-0.116,0.738-0.983,1.022-1.19"/>
				<path fill="none" stroke="#0033CC" stroke-width="0.25" stroke-linecap="round" stroke-miterlimit="10" d="M1.371,91.929
					c0.471-0.369,0.49-1.55,1.3-2.068"/>
				<path fill="none" stroke="#0033CC" stroke-width="0.25" stroke-linecap="round" stroke-miterlimit="10" d="M2.399,92.537
					c0.325-0.17,0.897-0.648,1.198-1.063"/>
			</g>
		</g>
		<g id="XMLID_4_">
			<g>
				<linearGradient id="SVGID_7_" gradientUnits="userSpaceOnUse" x1="3.6337" y1="88.2362" x2="-7.7842" y2="76.8711">
					<stop  offset="0" style="stop-color:#336AF2"/>
					<stop  offset="0.1337" style="stop-color:#336DF2"/>
					<stop  offset="0.2328" style="stop-color:#3276F4"/>
					<stop  offset="0.3207" style="stop-color:#3286F6"/>
					<stop  offset="0.4022" style="stop-color:#309DF9"/>
					<stop  offset="0.4784" style="stop-color:#2FBAFC"/>
					<stop  offset="0.5215" style="stop-color:#2ECEFF"/>
					<stop  offset="0.6081" style="stop-color:#30AFFB"/>
					<stop  offset="0.7105" style="stop-color:#3191F7"/>
					<stop  offset="0.8114" style="stop-color:#327BF4"/>
					<stop  offset="0.9091" style="stop-color:#336EF3"/>
					<stop  offset="1" style="stop-color:#336AF2"/>
				</linearGradient>
				<path fill="url(#SVGID_7_)" d="M-12.444,81.552l11.012-1.991c0,0,9.192,2.842,10.226,3.491l-15.437,2.695
					c1.761-2.719-0.724-4.347-0.724-4.347l-5.259,0.974C-12.549,81.956-12.444,81.552-12.444,81.552z"/>
			</g>
		</g>
	</g>
</g>
<g id="Banderes">
	<rect y="92.158" fill="#FEFD3C" width="28" height="3.093"/>
	<rect y="95.251" fill="#A61024" width="28" height="3.093"/>
	<rect y="101.437" fill="#A61024" width="28" height="3.093"/>
	<rect y="107.623" fill="#A61024" width="28" height="3.093"/>
	<rect y="113.809" fill="#A61024" width="28" height="3.093"/>
	<rect y="98.344" fill="#FEFD3C" width="28" height="3.093"/>
	<rect y="104.53" fill="#FEFD3C" width="28" height="3.093"/>
	<rect y="110.716" fill="#FEFD3C" width="28" height="3.093"/>
	<rect y="116.902" fill="#FEFD3C" width="28" height="3.093"/>
	<g>
		<rect x="28.112" y="99.361" fill="#EFC32E" width="27.867" height="13.759"/>
		<rect x="28.112" y="112.727" fill="#A61024" width="27.857" height="7.273"/>
		<rect x="28.112" y="92.088" fill="#A61024" width="27.857" height="7.273"/>
	</g>
</g>
<g id="Lupa">
	<g>
		<path fill="#0423D4" d="M70.733,93.167c-6.816-1.119-13.249,3.499-14.368,10.315c-1.119,6.816,3.499,13.248,10.316,14.367
			c6.816,1.119,13.248-3.499,14.367-10.315C82.168,100.718,77.549,94.286,70.733,93.167z M67.799,111.042
			c-3.056-0.502-5.127-3.386-4.625-6.442c0.502-3.056,3.386-5.127,6.442-4.625c3.056,0.502,5.127,3.386,4.625,6.442
			C73.739,109.473,70.855,111.544,67.799,111.042z"/>
		<path fill="#0423D4" d="M83.375,112.353c-0.84-0.578-2.202-1.729-2.645-2.021c-2.283-0.901-4.828-1.147-7.327-0.607
			c0.099,0.426,1.097,4.372,1.646,6.79c0.495,0.41,2.758,2.141,3.653,2.724C80.883,120.66,85.444,113.775,83.375,112.353z"/>
	</g>
	<g id="Creu">
		<path fill="#0033CC" d="M35.133,87.668l-4.622-4.622l4.622-4.622c0.488-0.488,0.732-1.128,0.732-1.768s-0.244-1.28-0.732-1.768
			c-0.977-0.977-2.56-0.977-3.535,0l-4.622,4.622l-4.622-4.622c-0.976-0.977-2.56-0.977-3.535,0c-0.977,0.977-0.977,2.56,0,3.535
			l4.622,4.622l-4.622,4.622c-0.977,0.976-0.977,2.56,0,3.535c0.977,0.977,2.56,0.977,3.535,0l4.622-4.622l4.622,4.622
			c0.488,0.488,1.128,0.732,1.768,0.732s1.28-0.244,1.768-0.732C36.109,90.227,36.109,88.644,35.133,87.668z"/>
		<path fill="#0033CC" d="M110.507,112.968l-6.975-6.975l6.975-6.975c0.737-0.736,1.105-1.702,1.105-2.668s-0.368-1.931-1.105-2.668
			c-1.474-1.474-3.863-1.474-5.335,0l-6.975,6.975l-6.975-6.975c-1.472-1.474-3.863-1.474-5.335,0c-1.474,1.474-1.474,3.863,0,5.335
			l6.975,6.975l-6.975,6.975c-1.474,1.472-1.474,3.863,0,5.335c1.474,1.474,3.863,1.474,5.335,0l6.975-6.975l6.975,6.975
			c0.736,0.737,1.702,1.105,2.668,1.105c0.965,0,1.931-0.368,2.668-1.105C111.981,116.829,111.981,114.44,110.507,112.968z"/>
	</g>
</g>
<g id="Capa_22">
</g>
<g id="Img" display="none">
	
		<image display="inline" overflow="visible" width="560" height="560" xlink:href="../../../../../../Users/nicosu/Pictures/GitHub-Mark.png"  transform="matrix(0.0663 0 0 0.0663 51.4488 23.3203)">
	</image>
</g>
<g id="Guies_3">
</g>
<g id="Guies_2">
</g>
<g id="Xarxes_1_" display="none">
</g>
</svg>
